<svg data-v-0dd9719b="" version="1.0" xmlns="http://www.w3.org/2000/svg" xmlns:xlink="http://www.w3.org/1999/xlink" width="100%" height="100%" viewBox="0 0 340.000000 250.000000" preserveAspectRatio="xMidYMid meet" color-interpolation-filters="sRGB" style="margin: auto;"> <rect data-v-0dd9719b="" x="0" y="0" width="100%" height="100%" fill="#fff" fill-opacity="1" class="background"></rect> <rect data-v-0dd9719b="" x="0" y="0" width="100%" height="100%" fill="url(#watermark)" fill-opacity="1" class="watermarklayer"></rect> <g data-v-0dd9719b="" fill="#333" class="icon-text-wrapper icon-svg-group iconsvg" transform="translate(48.43000030517578,97.64146614074707)"><g class="iconsvg-imagesvg" transform="translate(0,0)"><g><rect fill="#333" fill-opacity="0" stroke-width="2" x="0" y="0" width="60" height="54.71706716519995" class="image-rect"></rect> <svg x="0" y="0" width="60" height="54.71706716519995" filtersec="colorsb6232362593" class="image-svg-svg primary" style="overflow: visible;"><svg xmlns="http://www.w3.org/2000/svg" viewBox="0.007376670837402344 0.017479896545410156 109.63544464111328 99.98246765136719"><g fill-rule="evenodd"><path d="M46.12 21.84c-2.94-8.25-7.27-15.43-1.06-17.59C53.49 1.3 60.41-3 62.64 3.15c3 8.39 7.23 15.37 1.06 17.6L52.39 24.8c-10.91 3.9-8.55 23-5.62 31.19C54.16 76.67 23 87.73 15.59 67.14A16.58 16.58 0 0 1 25.61 46c3.09 0 23.98-14.41 20.51-24.16z" fill="#104e70"></path><path d="M83.51 43C82 51 84.92 71.28 93.82 73c8.39 1.62 17 1.62 15.69 8-1.83 9.17-1.67 16.89-8 15.7-8.37-1.59-16.91-1.65-15.69-8l2.28-11.82c2.18-11.39-15.46-19.05-24-20.7A16.53 16.53 0 0 1 51 36.77C55.1 15.24 87.68 21.51 83.51 43z" fill="#2491eb"></path><path d="M25.67 89.11c-6.16 7.08-10 13.8-14.81 9.58-7-6.13-13.74-9.91-9.57-14.79 4.8-5.62 9.76-14 14.8-9.58l9.08 7.9c8.74 7.57 24.23-3.87 29.9-10.44a16.58 16.58 0 0 1 23.38-1.65c16.57 14.44-5.21 39.37-21.72 25 2.5.04-23.48-14.74-31.06-6.02z" fill="#85c4f5"></path></g></svg></svg> <!----></g></g> <g transform="translate(67,16.373533248901367)"><g data-gra="path-name" fill-rule="" class="tp-name iconsvg-namesvg"><g transform="scale(1)"><g><path d="M13.93-11.78L20.54 0 14.03 0 9.81-8.16 8.1-7.14 8.1 0 2.31 0 2.31-21.34 8.1-21.34 8.1-12.07Q8.54-12.94 9.87-14.8L9.87-14.8 14.35-21.34 20.66-21.34 13.93-11.78ZM28.64 0L22.85 0 22.85-21.34 28.64-21.34 28.64 0ZM42.67-16.63L42.67 0 36.91 0 36.91-16.63 31.7-16.63 31.7-21.34 47.87-21.34 47.87-16.63 42.67-16.63ZM70.33 0L64.02 0 62.97-4 56.03-4 54.95 0 48.62 0 55.58-21.43 63.28-21.43 70.33 0ZM57.23-8.73L61.77-8.73 60.85-12.23Q60.53-13.4 60.07-15.26 59.61-17.11 59.46-17.91L59.46-17.91Q59.33-17.17 58.95-15.46 58.56-13.75 57.23-8.73L57.23-8.73ZM86.59-6.48L86.59-6.48Q86.59-4.5 85.58-2.96 84.58-1.42 82.68-0.56 80.78 0.29 78.23 0.29L78.23 0.29Q76.09 0.29 74.65-0.01 73.2-0.31 71.64-1.05L71.64-1.05 71.64-6.19Q73.29-5.34 75.07-4.87 76.85-4.39 78.34-4.39L78.34-4.39Q79.63-4.39 80.23-4.84 80.82-5.29 80.82-5.99L80.82-5.99Q80.82-6.42 80.58-6.75 80.34-7.08 79.81-7.42 79.28-7.75 76.97-8.79L76.97-8.79Q74.88-9.74 73.84-10.63 72.79-11.52 72.29-12.67 71.79-13.83 71.79-15.4L71.79-15.4Q71.79-18.35 73.93-20 76.08-21.65 79.83-21.65L79.83-21.65Q83.15-21.65 86.59-20.12L86.59-20.12 84.82-15.67Q81.83-17.04 79.66-17.04L79.66-17.04Q78.53-17.04 78.02-16.64 77.51-16.25 77.51-15.67L77.51-15.67Q77.51-15.04 78.16-14.54 78.81-14.04 81.69-12.73L81.69-12.73Q84.44-11.49 85.52-10.07 86.59-8.64 86.59-6.48ZM109.29 0L102.99 0 101.94-4 95-4 93.92 0 87.58 0 94.55-21.43 102.24-21.43 109.29 0ZM96.2-8.73L100.74-8.73 99.82-12.23Q99.5-13.4 99.04-15.26 98.58-17.11 98.43-17.91L98.43-17.91Q98.3-17.17 97.91-15.46 97.53-13.75 96.2-8.73L96.2-8.73ZM131.92-21.34L131.92 0 124.36 0 116.56-15.04 116.43-15.04Q116.71-11.49 116.71-9.62L116.71-9.62 116.71 0 111.6 0 111.6-21.34 119.13-21.34 126.9-6.51 126.99-6.51Q126.78-9.74 126.78-11.69L126.78-11.69 126.78-21.34 131.92-21.34ZM154.65-11.12L154.65-11.12Q154.65-5.78 151.71-2.89 148.77 0 143.44 0L143.44 0 136.54 0 136.54-21.34 143.92-21.34Q149.06-21.34 151.86-18.72 154.65-16.09 154.65-11.12ZM148.67-10.92L148.67-10.92Q148.67-13.86 147.51-15.27 146.35-16.69 143.98-16.69L143.98-16.69 142.3-16.69 142.3-4.73 143.59-4.73Q146.22-4.73 147.44-6.26 148.67-7.78 148.67-10.92ZM178.45-10.7L178.45-10.7Q178.45-5.31 175.81-2.51 173.17 0.29 168.07 0.29L168.07 0.29Q163.05 0.29 160.37-2.53 157.69-5.34 157.69-10.73L157.69-10.73Q157.69-16.06 160.36-18.87 163.02-21.68 168.1-21.68L168.1-21.68Q173.2-21.68 175.82-18.89 178.45-16.1 178.45-10.7ZM163.77-10.7L163.77-10.7Q163.77-4.51 168.07-4.51L168.07-4.51Q170.26-4.51 171.32-6.02 172.38-7.52 172.38-10.7L172.38-10.7Q172.38-13.9 171.31-15.42 170.23-16.95 168.1-16.95L168.1-16.95Q163.77-16.95 163.77-10.7Z" transform="translate(-2.309999942779541, 21.68000030517578)"></path></g> <!----> <!----> <!----> <!----> <!----> <!----> <!----></g></g> <!----></g></g><defs v-gra="od"></defs></svg>